<svg xmlns="http://www.w3.org/2000/svg" width="50" height="50" viewBox="0 0 190.3 180.309" class="jss104"><defs><linearGradient id="grad"><stop offset="24%" stop-color="#05EEFF"></stop><stop offset="81.75%" stop-color="#00FFF0"></stop></linearGradient></defs><style>@-webkit-keyframes circle{0%{stroke-dashoffset:2000;fill-opacity:0;stroke-width:1pt}20%,40%,80%{fill-opacity:0}60%{fill-opacity:.5}to{stroke-dashoffset:0;fill-opacity:1;stroke-width:0}}@keyframes circle{0%{stroke-dashoffset:2000;fill-opacity:0;stroke-width:1pt}20%,40%,80%{fill-opacity:0}60%{fill-opacity:.5}to{stroke-dashoffset:0;fill-opacity:1;stroke-width:0}}@-webkit-keyframes bird{0%{stroke-dashoffset:2500;fill-opacity:0;stroke-width:1pt}20%,40%,80%{fill-opacity:0}60%{fill-opacity:.5}to{stroke-dashoffset:0;fill-opacity:1;stroke-width:.5pt}}@keyframes bird{0%{stroke-dashoffset:1500;fill-opacity:0;stroke-width:2pt}20%,40%,60%{fill-opacity:0}80%{fill-opacity:1}to{stroke-dashoffset:0;fill-opacity:1;stroke-width:0}}</style><g id="layer1" stroke-miterlimit="10"><path d="M195.575 166.862a90.858 88.954 52.283 01-104.948 69.392A90.858 88.954 52.283 0119.44 129.302 90.858 88.954 52.283 01124.387 59.91a90.858 88.954 52.283 0171.188 106.952z" style="-webkit-animation:circle 5s alternate;animation:circle 5s alternate" stroke-dasharray="2000" fill="url(#grad)" stroke="url(#grad)" transform="translate(-12.544 -57.923)"></path><path d="M87.17 90.907a9.437 9.437 0 00-.753.056c-.782-.14-2.299.06-4.868.625-2.687.59-5.501 1.199-6.255 1.355-1.584.326-1.617.546-1.656 11.115-.013 3.57-.056 7.347-.095 8.394-.039 1.047.085 1.934.275 1.972.09.018.527-.47 1.155-1.261.026.703.131 1.22.275 1.247.19.038 1.892-2.123 3.782-4.802 1.387-1.965 2.66-3.642 3.312-4.387 1.733.877 4.629 2.864 4.813 3.413.153.458 1.72 2.13 3.48 3.716 1.808 1.626 3.68 3.945 4.297 5.323.6 1.343 3.079 6.371 5.506 11.174l4.414 8.734 3.29.706c1.81.389 4.533 1.14 6.052 1.669 2.676.932 2.78 1.05 3.363 3.812.33 1.567.713 5.53.85 8.807.393 9.44 1.02 19.145 1.547 23.949.145 1.33.412 4.443.592 6.917s.455 5.588.61 6.92c.155 1.332.457 4.452.672 6.933.215 2.482.546 6.007.735 7.833.19 1.827.352 4.205.363 5.286.01 1.081.15 1.874.31 1.762.103-.072.457-2.181.919-5.27.111 1.376.194 2.748.202 3.495.01 1.08.15 1.874.31 1.761.299-.209 2.639-16.906 3.952-28.203.264-2.267.594-4.325.872-5.556.355.597.754 1.374 1.144 2.262 2.882 6.566 4.016 9.2 5.141 11.938.6 1.46 1.184 2.59 1.298 2.51.066-.046.163-.95.26-2.23.551 1.307 1.064 2.29 1.17 2.217.114-.08.317-2.51.451-5.4.223-4.785.337-8.076.886-25.49.134-4.238.2-6.006.362-6.779 1.602 1.236 5.02 4.156 8.84 7.572 5.12 4.579 9.414 8.252 9.541 8.162.092-.064-.085-.514-.724-1.714 1.28 1.082 2.101 1.738 2.155 1.7.215-.15-.878-2.143-6.564-11.974-1.81-3.13-5.33-9.28-10.712-18.711-.554-.972-2.835-4.947-5.067-8.833a1706.414 1706.414 0 01-6.696-11.76c-1.45-2.583-2.853-5.009-3.12-5.391-.265-.382-1.957-3.341-3.76-6.576-1.802-3.235-3.666-6.22-4.14-6.634-.853-.744-8.88-3.346-18.152-5.883-4.783-1.31-12.333-4.783-13.384-6.157-.174-.228-.569-.338-1.25-.324z" style="-webkit-animation:bird 7s alternate;animation:bird 7s alternate" stroke-dasharray="1200" fill="#1a1a1a" stroke="#1a1a1a" transform="translate(-12.544 -57.923)"></path></g></svg>