<?xml version="1.0" encoding="UTF-8" standalone="no"?>
<svg
   width="571"
   height="571"
   viewBox="0 0 151.043 151.043"
   version="1.1"
   id="svg878"
   sodipodi:docname="Reborn Blue Black.svg"
   inkscape:version="1.1.2 (b8e25be8, 2022-02-05)"
   inkscape:export-filename="/Users/cadenmitchell/Downloads/rebornos-arm.png"
   inkscape:export-xdpi="344.32224"
   inkscape:export-ydpi="344.32224"
   xmlns:inkscape="http://www.inkscape.org/namespaces/inkscape"
   xmlns:sodipodi="http://sodipodi.sourceforge.net/DTD/sodipodi-0.dtd"
   xmlns="http://www.w3.org/2000/svg"
   xmlns:svg="http://www.w3.org/2000/svg">
  <defs
     id="defs882" />
  <sodipodi:namedview
     id="namedview880"
     pagecolor="#505050"
     bordercolor="#ffffff"
     borderopacity="1"
     inkscape:pageshadow="0"
     inkscape:pageopacity="0"
     inkscape:pagecheckerboard="1"
     showgrid="false"
     inkscape:zoom="0.82108469"
     inkscape:cx="223.48486"
     inkscape:cy="266.1114"
     inkscape:window-width="1440"
     inkscape:window-height="847"
     inkscape:window-x="0"
     inkscape:window-y="25"
     inkscape:window-maximized="1"
     inkscape:current-layer="svg878" />
  <path
     d="M113.28 140.924H37.76L.001 75.52l37.76-65.4h75.52l37.76 65.402z"
     fill="#00222b"
     stroke="#aef"
     stroke-opacity="0"
     id="path870" />
  <path
     id="path872"
     style="stroke-width:3.78038;fill:#006680;fill-opacity:1"
     d="M 417.17969 57.386719 L 297.95117 57.460938 L 297.95117 125.50781 L 377.89453 125.50781 L 417.88281 194.68945 L 476.8125 160.66602 L 417.17969 57.386719 z M 273.04492 57.416016 L 153.81641 57.460938 L 94.183594 160.66602 L 153.11328 194.68945 L 193.10156 125.46289 L 273.04492 125.46289 L 273.04492 57.416016 z M 81.728516 182.31641 L 22.134766 285.50195 L 81.765625 388.78125 L 114.44531 369.91211 L 72.1875 369.91211 L 72.1875 320.90234 L 72.1875 307.93555 L 72.1875 250.10156 C 72.1875 225.16641 92.262107 205.0918 117.19727 205.0918 L 121.23047 205.0918 L 81.728516 182.31641 z M 489.26758 182.31641 L 449.82031 205.0918 L 453.79688 205.0918 C 478.73202 205.0918 498.80469 225.16641 498.80469 250.10156 L 498.80469 307.93555 L 498.80469 320.90234 L 498.80469 369.91211 L 456.47461 369.91211 L 489.23828 388.82812 L 548.86914 285.54688 L 489.26758 182.31641 z M 153.10547 376.33594 L 94.177734 410.35938 L 153.77539 513.58398 L 273 513.58398 L 273 445.53711 L 193.10156 445.53711 L 153.10547 376.33594 z M 417.80859 376.33594 L 377.84961 445.53711 L 297.95508 445.53711 L 297.95508 513.58398 L 417.1875 513.58398 L 476.78125 410.35938 L 417.80859 376.33594 z "
     transform="scale(0.26452364)" />
  <path
     id="path874"
     style="stroke-width:3.78038;fill:#0088aa;fill-opacity:1"
     d="M 273.01172 146.24805 L 205.10742 146.25586 L 171.09766 205.0918 L 238.93164 205.0918 L 238.98828 204.99414 L 273.01172 204.99414 L 273.01172 146.24805 z M 297.95508 146.25586 L 297.95508 205.00195 L 331.97852 205.00195 L 332.03125 205.0918 L 399.86328 205.0918 L 365.85742 146.26367 L 297.95508 146.25586 z M 173.44922 369.91211 L 205.10547 424.74805 L 273.03711 424.74805 L 273.03711 369.91211 L 173.44922 369.91211 z M 297.95117 369.91211 L 297.95117 424.74414 L 365.88477 424.74414 L 397.53711 369.91211 L 297.95117 369.91211 z "
     transform="scale(0.26452364)" />
  <g
     aria-label="ARM"
     id="text988"
     style="font-size:50.6973px;line-height:1.25;font-family:'Sonsie One';-inkscape-font-specification:'Sonsie One';text-align:center;text-anchor:middle;fill:#ffffff;stroke-width:1.26744">
    <path
       d="m 45.391344,79.333196 v -7.104554 q 0,-1.460518 -0.569355,-2.747754 -0.5446,-1.31199 -1.510027,-2.277417 -0.965427,-0.965428 -2.277418,-1.510027 -1.287236,-0.569355 -2.747754,-0.569355 -1.460518,0 -2.772508,0.569355 -1.287236,0.544599 -2.252663,1.510027 -0.965428,0.965427 -1.534782,2.277417 -0.5446,1.287236 -0.5446,2.747754 v 7.104554 z m 7.104553,14.184352 H 45.391344 V 86.412994 H 31.182237 v 7.104554 H 24.102438 V 72.228642 q 0,-2.94579 1.113955,-5.520262 1.113954,-2.599227 3.020054,-4.530081 1.930854,-1.930854 4.505326,-3.044809 2.599227,-1.113954 5.545017,-1.113954 2.945791,0 5.520263,1.113954 2.599227,1.113955 4.530081,3.044809 1.930854,1.930854 3.044809,4.530081 1.113954,2.574472 1.113954,5.520262 z"
       style="font-family:Righteous;-inkscape-font-specification:Righteous"
       id="path17421" />
    <path
       d="m 65.764331,65.124089 v 14.209107 h 7.104553 q 1.460518,0 2.747754,-0.5446 1.287236,-0.569355 2.252663,-1.534782 0.965427,-0.965427 1.510027,-2.252663 0.569355,-1.311991 0.569355,-2.772509 0,-1.460518 -0.569355,-2.747754 -0.5446,-1.31199 -1.510027,-2.277417 -0.965427,-0.965428 -2.252663,-1.510027 -1.287236,-0.569355 -2.747754,-0.569355 z m 0,28.393459 H 58.659777 V 58.019536 h 14.209107 q 1.955609,0 3.76269,0.519845 1.807082,0.495091 3.366618,1.435764 1.58429,0.915918 2.871526,2.227908 1.311991,1.287236 2.227909,2.871527 0.940673,1.584291 1.435764,3.391372 0.519845,1.807082 0.519845,3.76269 0,1.831836 -0.470336,3.564654 -0.445582,1.732818 -1.311991,3.292354 -0.841654,1.559536 -2.079382,2.871527 -1.237727,1.311991 -2.772508,2.277418 l 3.935972,9.282953 h -7.550135 l -3.094318,-7.154063 -7.946207,0.04951 z"
       style="font-family:Righteous;-inkscape-font-specification:Righteous"
       id="path17423" />
    <path
       d="m 126.95756,93.517548 h -7.0798 v -25.34865 q 0,-0.742637 -0.29705,-1.386255 -0.2723,-0.643618 -0.76739,-1.113954 -0.47034,-0.495091 -1.11396,-0.767391 -0.64362,-0.2723 -1.38625,-0.2723 -0.74264,0 -1.38626,0.2723 -0.64361,0.2723 -1.13871,0.767391 -0.47033,0.470336 -0.74263,1.113954 -0.2723,0.643618 -0.2723,1.386255 v 25.34865 h -7.10455 v -25.34865 q 0,-0.742637 -0.2723,-1.386255 -0.2723,-0.643618 -0.7674,-1.113954 -0.47033,-0.495091 -1.11395,-0.767391 -0.64362,-0.2723 -1.38625,-0.2723 -0.74264,0 -1.38626,0.2723 -0.64362,0.2723 -1.138708,0.767391 -0.470336,0.470336 -0.742636,1.113954 -0.2723,0.643618 -0.2723,1.386255 v 25.34865 h -7.104553 v -25.34865 q 0,-2.203155 0.8169,-4.134009 0.841654,-1.955608 2.277418,-3.391372 1.460518,-1.460518 3.391372,-2.277418 1.955609,-0.841654 4.158767,-0.841654 1.98036,0 3.81219,0.717882 1.83184,0.693127 3.29236,2.029872 1.46052,-1.336745 3.2676,-2.029872 1.83183,-0.717882 3.8122,-0.717882 2.20315,0 4.13401,0.841654 1.9556,0.8169 3.39137,2.277418 1.46052,1.435764 2.27742,3.391372 0.84165,1.930854 0.84165,4.134009 z"
       style="font-family:Righteous;-inkscape-font-specification:Righteous"
       id="path17425" />
  </g>
</svg>
